<?xml version="1.0" encoding="UTF-8"?>
<svg xmlns="http://www.w3.org/2000/svg" xmlns:xlink="http://www.w3.org/1999/xlink" width="89px" height="35px" viewBox="0 0 89 35" version="1.1">
<g id="surface1">
<path style=" stroke:none;fill-rule:nonzero;fill:rgb(0%,0%,0%);fill-opacity:1;" d="M 39.921875 0.199219 C 33.082031 0.449219 25.125 1.191406 22.570312 1.832031 C 21.503906 2.101562 20.492188 2.8125 20.492188 3.304688 C 20.492188 4.363281 25.390625 6.496094 31.03125 7.878906 L 32.921875 8.347656 L 33.082031 9.089844 C 33.269531 10.0625 34.359375 10.902344 36.222656 11.5625 C 36.941406 11.824219 37.605469 12.015625 37.660156 12.003906 C 37.6875 11.984375 37.527344 11.644531 37.261719 11.261719 C 36.753906 10.570312 36.570312 9.089844 36.886719 8.628906 L 37.046875 8.410156 L 44.738281 8.410156 C 50.566406 8.410156 52.457031 8.441406 52.617188 8.53125 C 52.964844 8.75 52.777344 10.53125 52.324219 11.253906 C 52.085938 11.632812 51.925781 11.964844 51.980469 11.984375 C 52.03125 12.003906 52.699219 11.792969 53.441406 11.511719 C 55.277344 10.832031 56.210938 10.089844 56.371094 9.152344 L 56.503906 8.398438 L 58.925781 7.789062 C 61.71875 7.066406 66.269531 5.417969 67.734375 4.574219 C 69.117188 3.785156 69.332031 3.023438 68.320312 2.382812 C 67.523438 1.863281 66.484375 1.632812 63.078125 1.210938 C 55.972656 0.339844 47.027344 -0.0507812 39.921875 0.199219 Z M 31.085938 4.042969 C 31.992188 4.617188 32.734375 5.105469 32.734375 5.136719 C 32.734375 5.214844 30.632812 5.015625 29.835938 4.867188 C 28.105469 4.523438 27.546875 3.882812 28.453125 3.324219 C 28.769531 3.152344 29.089844 3.003906 29.195312 3.003906 C 29.328125 3.003906 30.15625 3.472656 31.085938 4.042969 Z M 61.585938 3.34375 C 61.828125 3.535156 62.011719 3.792969 62.011719 3.933594 C 62.011719 4.234375 61.160156 4.65625 60.148438 4.855469 C 59.324219 5.015625 57.222656 5.214844 57.222656 5.136719 C 57.222656 4.976562 60.65625 3.003906 60.921875 3.003906 C 61.054688 3.003906 61.347656 3.152344 61.585938 3.34375 Z M 61.585938 3.34375 "/>
<path style=" stroke:none;fill-rule:nonzero;fill:rgb(0%,0%,0%);fill-opacity:1;" d="M 16.765625 0.730469 C 4.949219 2.792969 -0.746094 5.367188 0.503906 8.070312 C 1.332031 9.820312 3.859375 11.253906 11.683594 14.367188 C 20.492188 17.871094 24.085938 19.722656 26.429688 21.976562 C 26.933594 22.464844 27.441406 22.945312 27.519531 23.027344 C 27.917969 23.386719 27.386719 21.503906 26.90625 20.8125 C 25.230469 18.441406 21.71875 16.296875 14.1875 13.042969 C 7.078125 9.972656 5.136719 8.890625 4.523438 7.628906 C 3.621094 5.757812 7.292969 3.953125 19.164062 0.480469 C 19.667969 0.332031 20.039062 0.210938 19.960938 0.199219 C 19.882812 0.199219 18.445312 0.441406 16.765625 0.730469 Z M 16.765625 0.730469 "/>
<path style=" stroke:none;fill-rule:nonzero;fill:rgb(0%,0%,0%);fill-opacity:1;" d="M 70.820312 0.621094 C 75.957031 2.121094 77.582031 2.644531 79.84375 3.503906 C 85.21875 5.554688 86.3125 7.007812 83.835938 8.859375 C 82.53125 9.839844 81.226562 10.503906 76.332031 12.625 C 68.425781 16.039062 65.472656 17.710938 63.371094 19.960938 C 62.492188 20.902344 61.746094 22.285156 61.746094 22.964844 C 61.746094 23.355469 61.800781 23.328125 62.542969 22.535156 C 64.859375 20.082031 68.375 18.160156 76.382812 14.96875 C 83.625 12.082031 85.78125 11.0625 87.667969 9.609375 C 88.761719 8.769531 88.761719 8.75 88.839844 7.457031 L 88.921875 6.15625 L 87.800781 5.304688 C 85.648438 3.683594 81.09375 2.273438 73.589844 0.890625 C 71.539062 0.511719 69.757812 0.199219 69.625 0.199219 C 69.492188 0.199219 70.050781 0.390625 70.820312 0.621094 Z M 70.820312 0.621094 "/>
<path style=" stroke:none;fill-rule:nonzero;fill:rgb(0%,0%,0%);fill-opacity:1;" d="M 13.28125 3.945312 C 9.820312 4.894531 8.222656 6.335938 9.15625 7.707031 C 9.925781 8.839844 10.726562 9.25 15.835938 11.164062 C 22.890625 13.796875 25.203125 15.085938 26.800781 17.25 C 27.464844 18.128906 27.546875 18.210938 27.757812 17.949219 C 28.183594 17.441406 28.078125 15.617188 27.574219 14.917969 C 26.214844 12.976562 23.527344 11.601562 15.542969 8.808594 C 13.09375 7.949219 12.191406 7.347656 12.03125 6.496094 C 11.898438 5.796875 12.457031 5.046875 13.707031 4.265625 C 14.210938 3.945312 14.613281 3.664062 14.585938 3.644531 C 14.53125 3.632812 13.945312 3.765625 13.28125 3.945312 Z M 13.28125 3.945312 "/>
<path style=" stroke:none;fill-rule:nonzero;fill:rgb(0%,0%,0%);fill-opacity:1;" d="M 75.292969 3.914062 C 77.078125 4.925781 77.902344 6.015625 77.421875 6.789062 C 76.917969 7.640625 75.878906 8.1875 72.527344 9.351562 C 65.925781 11.652344 63.238281 13.066406 61.984375 14.898438 C 61.320312 15.867188 61.320312 18.121094 61.984375 18.121094 C 62.066406 18.121094 62.410156 17.742188 62.730469 17.269531 C 63.449219 16.207031 65.019531 14.945312 66.695312 14.046875 C 67.390625 13.675781 70.238281 12.503906 73.03125 11.453125 C 78.515625 9.390625 79.84375 8.710938 80.402344 7.71875 C 80.800781 6.976562 80.535156 6.078125 79.683594 5.425781 C 78.941406 4.855469 76.996094 4.074219 75.558594 3.765625 L 74.679688 3.5625 Z M 75.292969 3.914062 "/>
<path style=" stroke:none;fill-rule:nonzero;fill:rgb(0%,0%,0%);fill-opacity:1;" d="M 62.332031 9.839844 C 61.507812 10.570312 59.988281 11.210938 57.59375 11.824219 C 55.4375 12.363281 54.214844 12.925781 52.457031 14.136719 C 51.285156 14.957031 49.824219 15.496094 48.09375 15.769531 C 46.949219 15.949219 42.742188 15.976562 41.597656 15.808594 C 39.761719 15.546875 38.21875 14.96875 36.863281 14.015625 C 35.210938 12.863281 33.988281 12.335938 31.539062 11.714844 C 29.382812 11.164062 28.265625 10.691406 27.308594 9.910156 L 26.640625 9.378906 L 26.480469 9.742188 C 26.003906 10.683594 27.546875 12.484375 29.089844 12.804688 C 30.792969 13.15625 31.59375 13.527344 33.402344 14.835938 C 36.488281 17.058594 38.910156 17.769531 43.78125 17.890625 C 46.363281 17.960938 48.414062 17.808594 50.566406 17.410156 C 52.457031 17.050781 53.550781 16.597656 55.121094 15.519531 C 58.339844 13.316406 58.394531 13.285156 59.617188 13.015625 C 61.933594 12.503906 63.183594 11.402344 63.023438 10 L 62.945312 9.269531 Z M 62.332031 9.839844 "/>
<path style=" stroke:none;fill-rule:nonzero;fill:rgb(0%,0%,0%);fill-opacity:1;" d="M 3.035156 26.769531 C 2.714844 27.089844 3.21875 27.132812 7.613281 27.132812 C 10.007812 27.132812 11.976562 27.152344 11.976562 27.179688 C 11.976562 27.199219 9.925781 28.222656 7.425781 29.433594 C 4.738281 30.746094 2.925781 31.714844 2.980469 31.816406 C 3.0625 31.964844 3.59375 31.988281 8.648438 31.988281 C 14.050781 31.988281 14.238281 31.976562 14.238281 31.785156 C 14.238281 31.597656 14.027344 31.585938 9.6875 31.535156 L 5.164062 31.484375 L 9.769531 29.234375 C 12.296875 27.992188 14.34375 26.910156 14.320312 26.832031 C 14.1875 26.609375 3.246094 26.550781 3.035156 26.769531 Z M 3.035156 26.769531 "/>
<path style=" stroke:none;fill-rule:nonzero;fill:rgb(0%,0%,0%);fill-opacity:1;" d="M 64.78125 27.269531 C 64.488281 27.5625 64.78125 27.78125 65.472656 27.78125 C 66.03125 27.78125 66.136719 27.730469 66.136719 27.480469 C 66.136719 27.242188 66.003906 27.171875 65.527344 27.152344 C 65.179688 27.132812 64.886719 27.179688 64.78125 27.269531 Z M 64.78125 27.269531 "/>
<path style=" stroke:none;fill-rule:nonzero;fill:rgb(0%,0%,0%);fill-opacity:1;" d="M 16.902344 28.390625 C 15.089844 28.742188 13.867188 29.453125 13.839844 30.132812 C 13.839844 30.613281 14.824219 31.316406 16.046875 31.675781 C 17.328125 32.054688 19.589844 32.148438 21 31.867188 C 22.144531 31.636719 22.597656 31.386719 22.144531 31.214844 C 21.902344 31.125 21.609375 31.144531 20.785156 31.316406 C 19.054688 31.6875 17.21875 31.554688 15.996094 30.976562 C 14.90625 30.453125 15.0625 30.433594 19.5625 30.433594 L 23.660156 30.433594 L 23.742188 31.207031 C 23.820312 31.90625 23.875 31.988281 24.351562 31.988281 C 24.859375 31.988281 24.886719 31.90625 25.019531 30.714844 C 25.152344 29.445312 25.152344 29.433594 25.976562 29.125 C 27.09375 28.710938 28.636719 28.621094 29.886719 28.921875 C 31.164062 29.214844 31.40625 29.503906 31.40625 30.683594 C 31.40625 31.855469 31.511719 32.035156 32.230469 32.035156 C 32.921875 32.035156 33.082031 31.714844 32.949219 30.496094 C 32.871094 29.5625 32.789062 29.421875 32.125 29.042969 C 30.820312 28.300781 28.398438 28.050781 26.164062 28.421875 C 25.070312 28.613281 25.070312 28.613281 24.9375 28.414062 C 24.699219 28.070312 23.820312 28.230469 23.742188 28.632812 C 23.605469 29.234375 23.472656 29.273438 22.703125 28.921875 C 21.320312 28.300781 18.605469 28.050781 16.902344 28.390625 Z M 20.386719 28.894531 C 21.238281 29.042969 22.355469 29.574219 22.355469 29.824219 C 22.355469 29.902344 21.292969 29.933594 18.898438 29.933594 C 16.5 29.933594 15.4375 29.902344 15.4375 29.824219 C 15.4375 29.574219 16.632812 29.003906 17.40625 28.871094 C 18.496094 28.691406 19.296875 28.703125 20.386719 28.894531 Z M 20.386719 28.894531 "/>
<path style=" stroke:none;fill-rule:nonzero;fill:rgb(0%,0%,0%);fill-opacity:1;" d="M 33.375 28.363281 C 33.320312 28.433594 33.296875 29.273438 33.320312 30.234375 C 33.402344 31.855469 33.429688 31.988281 33.90625 32.015625 C 34.707031 32.078125 34.867188 31.855469 34.867188 30.707031 C 34.867188 29.933594 34.972656 29.542969 35.265625 29.332031 C 36.355469 28.53125 39.550781 28.5625 40.800781 29.382812 C 40.988281 29.492188 41.171875 30.125 41.253906 30.785156 C 41.386719 31.90625 41.414062 31.988281 41.917969 31.988281 C 42.398438 31.988281 42.449219 31.90625 42.53125 31.195312 L 42.609375 30.414062 L 43.300781 30.933594 C 44.554688 31.886719 47.292969 32.277344 49.824219 31.855469 C 53.683594 31.214844 53.761719 29.074219 49.929688 28.421875 C 47.082031 27.933594 44.074219 28.453125 42.957031 29.625 C 42.691406 29.914062 42.609375 29.933594 42.582031 29.742188 C 42.582031 29.382812 41.597656 28.804688 40.5625 28.542969 C 39.285156 28.210938 37.207031 28.152344 35.875 28.414062 C 34.917969 28.601562 34.867188 28.601562 34.730469 28.421875 C 34.546875 28.210938 33.589844 28.164062 33.375 28.363281 Z M 49.476562 28.914062 C 51.953125 29.414062 51.953125 30.84375 49.476562 31.355469 C 46.015625 32.078125 42.582031 30.375 45.164062 29.222656 C 46.335938 28.703125 47.878906 28.59375 49.476562 28.914062 Z M 49.476562 28.914062 "/>
<path style=" stroke:none;fill-rule:nonzero;fill:rgb(0%,0%,0%);fill-opacity:1;" d="M 53.070312 28.382812 C 52.988281 28.460938 53.867188 29.304688 55.011719 30.253906 C 56.664062 31.605469 57.25 31.988281 57.621094 31.988281 C 58.019531 31.988281 58.605469 31.617188 60.175781 30.335938 C 61.320312 29.421875 62.253906 28.601562 62.253906 28.503906 C 62.277344 28.273438 61.535156 28.164062 61.109375 28.34375 C 60.921875 28.421875 60.121094 29.023438 59.351562 29.683594 C 58.550781 30.34375 57.835938 30.925781 57.753906 30.964844 C 57.648438 31.003906 56.957031 30.515625 56.15625 29.863281 C 55.386719 29.214844 54.585938 28.582031 54.402344 28.453125 C 53.976562 28.203125 53.28125 28.164062 53.070312 28.382812 Z M 53.070312 28.382812 "/>
<path style=" stroke:none;fill-rule:nonzero;fill:rgb(0%,0%,0%);fill-opacity:1;" d="M 64.992188 28.351562 C 64.648438 28.484375 64.515625 31.566406 64.832031 31.875 C 65.046875 32.085938 65.898438 32.085938 66.109375 31.875 C 66.191406 31.785156 66.269531 30.984375 66.269531 30.09375 C 66.269531 28.5625 66.136719 28.230469 65.472656 28.230469 C 65.394531 28.230469 65.179688 28.28125 64.992188 28.351562 Z M 64.992188 28.351562 "/>
<path style=" stroke:none;fill-rule:nonzero;fill:rgb(0%,0%,0%);fill-opacity:1;" d="M 70.664062 28.421875 C 68.933594 28.710938 67.601562 29.464844 67.601562 30.132812 C 67.601562 31.546875 72.445312 32.546875 75.347656 31.746094 L 76.117188 31.527344 L 76.382812 31.777344 C 76.597656 31.988281 76.785156 32.027344 77.636719 32.007812 L 78.648438 31.988281 L 78.78125 30.714844 C 78.914062 29.445312 78.914062 29.433594 79.738281 29.125 C 80.855469 28.710938 82.398438 28.621094 83.652344 28.921875 C 84.929688 29.214844 85.167969 29.503906 85.167969 30.683594 C 85.167969 31.855469 85.273438 32.035156 85.992188 32.035156 C 86.683594 32.035156 86.84375 31.714844 86.710938 30.496094 C 86.632812 29.5625 86.550781 29.421875 85.886719 29.042969 C 84.582031 28.300781 82.160156 28.050781 79.925781 28.421875 C 78.832031 28.613281 78.832031 28.613281 78.699219 28.414062 C 78.59375 28.292969 78.378906 28.230469 78.0625 28.253906 C 77.714844 28.273438 77.554688 28.390625 77.503906 28.710938 C 77.449219 28.941406 77.316406 29.132812 77.210938 29.132812 C 77.101562 29.132812 76.675781 28.992188 76.226562 28.824219 C 74.734375 28.222656 72.660156 28.070312 70.664062 28.421875 Z M 74.441406 28.933594 C 75.664062 29.214844 76.226562 29.582031 76.226562 30.132812 C 76.226562 30.683594 75.664062 31.054688 74.441406 31.335938 C 72.074219 31.875 69.199219 31.214844 69.199219 30.132812 C 69.199219 29.054688 72.074219 28.382812 74.441406 28.933594 Z M 74.441406 28.933594 "/>
</g>
</svg>
